<svg width="595" height="582" viewBox="0 0 595 582" fill="none" xmlns="http://www.w3.org/2000/svg">
<g filter="url(#filter0_d_311_9)">
<path d="M172.838 249.967L173.732 248.28L172.981 246.523L143.971 178.628H488.703L471.443 244.095H254.792H252.369L251.247 246.243L181.119 380.487L178.062 386.339H184.664H350.459L382.667 453.142H145.259H142.889L141.751 455.221L85.4514 558H9.64581L172.838 249.967ZM490.353 558L359.45 296.843H439.981L568.94 558H490.353ZM358.344 141.241H232.024L294.882 21.5698L358.344 141.241Z" fill="#040000" stroke="white" stroke-width="8"/>
<path d="M486.309 562.453L487.415 564.664H489.887H572.704H579.147L576.289 558.89L444.716 293.072L443.615 290.847H441.131H356.978H350.506L353.4 296.636L486.309 562.453ZM298.396 15.7967L294.847 9.12413L291.326 15.8114L225.205 141.373L222.117 147.237H228.745H361.653H368.312L365.185 141.359L298.396 15.7967Z" fill="white" stroke="black" stroke-width="8"/>
</g>
<defs>
<filter id="filter0_d_311_9" x="0" y="0.57309" width="594.591" height="581.091" filterUnits="userSpaceOnUse" color-interpolation-filters="sRGB">
<feFlood flood-opacity="0" result="BackgroundImageFix"/>
<feColorMatrix in="SourceAlpha" type="matrix" values="0 0 0 0 0 0 0 0 0 0 0 0 0 0 0 0 0 0 127 0" result="hardAlpha"/>
<feOffset dx="3" dy="7"/>
<feGaussianBlur stdDeviation="3"/>
<feComposite in2="hardAlpha" operator="out"/>
<feColorMatrix type="matrix" values="0 0 0 0 0 0 0 0 0 0 0 0 0 0 0 0 0 0 0.25 0"/>
<feBlend mode="normal" in2="BackgroundImageFix" result="effect1_dropShadow_311_9"/>
<feBlend mode="normal" in="SourceGraphic" in2="effect1_dropShadow_311_9" result="shape"/>
</filter>
</defs>
</svg>
